<mxfile host="www.draw.io" modified="2019-11-27T02:32:53.810Z" agent="Mozilla/5.0 (Macintosh; Intel Mac OS X 10_14_0) AppleWebKit/537.36 (KHTML, like Gecko) Chrome/78.0.3904.108 Safari/537.36" etag="HSJMZIG8oWgZy9HddIQj" version="12.3.1" type="github" pages="1">
  <diagram id="gV4YHnWQ7ScEp-OP8fRe" name="Page-1">
    <mxGraphModel dx="946" dy="542" grid="1" gridSize="10" guides="1" tooltips="1" connect="1" arrows="1" fold="1" page="1" pageScale="1" pageWidth="827" pageHeight="1169" math="0" shadow="0">
      <root>
        <mxCell id="0"/>
        <mxCell id="1" parent="0"/>
        <mxCell id="mktGyMPhuxi01TZCev5i-21" value="配送CP" style="rounded=0;whiteSpace=wrap;html=1;verticalAlign=top;" vertex="1" parent="1">
          <mxGeometry x="450" y="120" width="150" height="260" as="geometry"/>
        </mxCell>
        <mxCell id="mktGyMPhuxi01TZCev5i-14" value="起始波次" style="rounded=0;whiteSpace=wrap;html=1;verticalAlign=top;" vertex="1" parent="1">
          <mxGeometry x="230" y="120" width="150" height="260" as="geometry"/>
        </mxCell>
        <mxCell id="mktGyMPhuxi01TZCev5i-1" value="起始点" style="rounded=1;whiteSpace=wrap;html=1;" vertex="1" parent="1">
          <mxGeometry x="70" y="230" width="100" height="50" as="geometry"/>
        </mxCell>
        <mxCell id="mktGyMPhuxi01TZCev5i-2" value="波次一" style="rounded=1;whiteSpace=wrap;html=1;" vertex="1" parent="1">
          <mxGeometry x="250" y="150" width="110" height="50" as="geometry"/>
        </mxCell>
        <mxCell id="mktGyMPhuxi01TZCev5i-3" value="波次二" style="rounded=1;whiteSpace=wrap;html=1;" vertex="1" parent="1">
          <mxGeometry x="250" y="230" width="110" height="50" as="geometry"/>
        </mxCell>
        <mxCell id="mktGyMPhuxi01TZCev5i-4" value="波次三" style="rounded=1;whiteSpace=wrap;html=1;" vertex="1" parent="1">
          <mxGeometry x="250" y="310" width="110" height="50" as="geometry"/>
        </mxCell>
        <mxCell id="mktGyMPhuxi01TZCev5i-6" value="CP1" style="rounded=1;whiteSpace=wrap;html=1;" vertex="1" parent="1">
          <mxGeometry x="470" y="150" width="110" height="50" as="geometry"/>
        </mxCell>
        <mxCell id="mktGyMPhuxi01TZCev5i-7" value="CP2" style="rounded=1;whiteSpace=wrap;html=1;" vertex="1" parent="1">
          <mxGeometry x="470" y="270" width="110" height="50" as="geometry"/>
        </mxCell>
        <mxCell id="mktGyMPhuxi01TZCev5i-9" value="目的地" style="rounded=1;whiteSpace=wrap;html=1;" vertex="1" parent="1">
          <mxGeometry x="670" y="220" width="100" height="50" as="geometry"/>
        </mxCell>
        <mxCell id="mktGyMPhuxi01TZCev5i-15" value="" style="endArrow=classic;html=1;entryX=0;entryY=0.5;entryDx=0;entryDy=0;exitX=1;exitY=0.5;exitDx=0;exitDy=0;" edge="1" parent="1" source="mktGyMPhuxi01TZCev5i-1" target="mktGyMPhuxi01TZCev5i-2">
          <mxGeometry width="50" height="50" relative="1" as="geometry">
            <mxPoint x="110" y="360" as="sourcePoint"/>
            <mxPoint x="160" y="310" as="targetPoint"/>
          </mxGeometry>
        </mxCell>
        <mxCell id="mktGyMPhuxi01TZCev5i-16" value="" style="endArrow=classic;html=1;entryX=0;entryY=0.5;entryDx=0;entryDy=0;exitX=1;exitY=0.5;exitDx=0;exitDy=0;" edge="1" parent="1" source="mktGyMPhuxi01TZCev5i-1" target="mktGyMPhuxi01TZCev5i-3">
          <mxGeometry width="50" height="50" relative="1" as="geometry">
            <mxPoint x="140" y="380" as="sourcePoint"/>
            <mxPoint x="190" y="330" as="targetPoint"/>
          </mxGeometry>
        </mxCell>
        <mxCell id="mktGyMPhuxi01TZCev5i-17" value="" style="endArrow=classic;html=1;entryX=0;entryY=0.5;entryDx=0;entryDy=0;exitX=1;exitY=0.5;exitDx=0;exitDy=0;" edge="1" parent="1" source="mktGyMPhuxi01TZCev5i-1" target="mktGyMPhuxi01TZCev5i-4">
          <mxGeometry width="50" height="50" relative="1" as="geometry">
            <mxPoint x="130" y="430" as="sourcePoint"/>
            <mxPoint x="180" y="380" as="targetPoint"/>
          </mxGeometry>
        </mxCell>
        <mxCell id="mktGyMPhuxi01TZCev5i-18" value="" style="endArrow=classic;html=1;entryX=0;entryY=0.5;entryDx=0;entryDy=0;" edge="1" parent="1" source="mktGyMPhuxi01TZCev5i-2" target="mktGyMPhuxi01TZCev5i-6">
          <mxGeometry width="50" height="50" relative="1" as="geometry">
            <mxPoint x="450" y="390" as="sourcePoint"/>
            <mxPoint x="500" y="340" as="targetPoint"/>
          </mxGeometry>
        </mxCell>
        <mxCell id="mktGyMPhuxi01TZCev5i-19" value="" style="endArrow=classic;html=1;entryX=0;entryY=0.5;entryDx=0;entryDy=0;exitX=1;exitY=0.5;exitDx=0;exitDy=0;" edge="1" parent="1" source="mktGyMPhuxi01TZCev5i-3" target="mktGyMPhuxi01TZCev5i-7">
          <mxGeometry width="50" height="50" relative="1" as="geometry">
            <mxPoint x="390" y="440" as="sourcePoint"/>
            <mxPoint x="440" y="390" as="targetPoint"/>
          </mxGeometry>
        </mxCell>
        <mxCell id="mktGyMPhuxi01TZCev5i-20" value="" style="endArrow=classic;html=1;entryX=0;entryY=0.5;entryDx=0;entryDy=0;exitX=1;exitY=0.5;exitDx=0;exitDy=0;" edge="1" parent="1" source="mktGyMPhuxi01TZCev5i-4" target="mktGyMPhuxi01TZCev5i-7">
          <mxGeometry width="50" height="50" relative="1" as="geometry">
            <mxPoint x="240" y="460" as="sourcePoint"/>
            <mxPoint x="290" y="410" as="targetPoint"/>
          </mxGeometry>
        </mxCell>
        <mxCell id="mktGyMPhuxi01TZCev5i-22" value="" style="endArrow=classic;html=1;entryX=0;entryY=0.5;entryDx=0;entryDy=0;exitX=1;exitY=0.5;exitDx=0;exitDy=0;" edge="1" parent="1" source="mktGyMPhuxi01TZCev5i-6" target="mktGyMPhuxi01TZCev5i-9">
          <mxGeometry width="50" height="50" relative="1" as="geometry">
            <mxPoint x="600" y="490" as="sourcePoint"/>
            <mxPoint x="650" y="440" as="targetPoint"/>
          </mxGeometry>
        </mxCell>
        <mxCell id="mktGyMPhuxi01TZCev5i-23" value="" style="endArrow=classic;html=1;entryX=0;entryY=0.5;entryDx=0;entryDy=0;exitX=1;exitY=0.5;exitDx=0;exitDy=0;" edge="1" parent="1" source="mktGyMPhuxi01TZCev5i-7" target="mktGyMPhuxi01TZCev5i-9">
          <mxGeometry width="50" height="50" relative="1" as="geometry">
            <mxPoint x="570" y="510" as="sourcePoint"/>
            <mxPoint x="620" y="460" as="targetPoint"/>
          </mxGeometry>
        </mxCell>
        <mxCell id="mktGyMPhuxi01TZCev5i-25" value="" style="shape=curlyBracket;whiteSpace=wrap;html=1;rounded=1;size=0.5333333333333333;rotation=180;" vertex="1" parent="1">
          <mxGeometry x="790" y="140" width="30" height="220" as="geometry"/>
        </mxCell>
        <mxCell id="mktGyMPhuxi01TZCev5i-29" value="" style="endArrow=none;dashed=1;html=1;" edge="1" parent="1">
          <mxGeometry width="50" height="50" relative="1" as="geometry">
            <mxPoint x="60" y="390" as="sourcePoint"/>
            <mxPoint x="830" y="390" as="targetPoint"/>
          </mxGeometry>
        </mxCell>
        <mxCell id="mktGyMPhuxi01TZCev5i-30" value="&lt;font style=&quot;font-size: 16px&quot;&gt;线路1：起始点+波次一+CP1+目的地&lt;/font&gt;" style="text;html=1;align=center;verticalAlign=middle;resizable=0;points=[];;autosize=1;" vertex="1" parent="1">
          <mxGeometry x="827" y="170" width="280" height="20" as="geometry"/>
        </mxCell>
        <mxCell id="mktGyMPhuxi01TZCev5i-31" value="&lt;font style=&quot;font-size: 16px&quot;&gt;线路2：起始点+波次二+CP2+目的地&lt;/font&gt;" style="text;html=1;align=center;verticalAlign=middle;resizable=0;points=[];;autosize=1;" vertex="1" parent="1">
          <mxGeometry x="827" y="245" width="280" height="20" as="geometry"/>
        </mxCell>
        <mxCell id="mktGyMPhuxi01TZCev5i-32" value="&lt;font style=&quot;font-size: 16px&quot;&gt;线路3：起始点+波次三+CP2+目的地&lt;/font&gt;" style="text;html=1;align=center;verticalAlign=middle;resizable=0;points=[];;autosize=1;" vertex="1" parent="1">
          <mxGeometry x="827" y="320" width="280" height="20" as="geometry"/>
        </mxCell>
        <mxCell id="mktGyMPhuxi01TZCev5i-36" value="pathCodeA ,pathwaveCodeA" style="text;html=1;align=center;verticalAlign=middle;resizable=0;points=[];;autosize=1;" vertex="1" parent="1">
          <mxGeometry x="1120" y="170" width="170" height="20" as="geometry"/>
        </mxCell>
        <mxCell id="mktGyMPhuxi01TZCev5i-37" value="pathCodeB ,pathwaveCodeB" style="text;html=1;align=center;verticalAlign=middle;resizable=0;points=[];;autosize=1;" vertex="1" parent="1">
          <mxGeometry x="1120" y="245" width="170" height="20" as="geometry"/>
        </mxCell>
        <mxCell id="mktGyMPhuxi01TZCev5i-38" value="pathCodeB ,pathwaveCodeC" style="text;html=1;align=center;verticalAlign=middle;resizable=0;points=[];;autosize=1;" vertex="1" parent="1">
          <mxGeometry x="1120" y="320" width="170" height="20" as="geometry"/>
        </mxCell>
      </root>
    </mxGraphModel>
  </diagram>
</mxfile>
